<svg width="35" height="35" viewBox="0 0 35 35" fill="none" xmlns="http://www.w3.org/2000/svg">
<path d="M0 30.6227C0.0822454 30.5496 0.173628 30.4765 0.255874 30.3943C2.54047 28.1097 4.81593 25.8342 7.10052 23.5496C7.1919 23.4582 7.24673 23.3486 7.32898 23.2298C7.84987 23.7689 8.30679 24.2441 8.73629 24.6736C9.48564 23.9243 10.1893 23.2206 10.9021 22.517C6.83551 17.6097 7.79504 10.4543 12.5013 6.63447C17.0339 2.9517 23.5313 3.28068 27.6253 7.38382C31.7285 11.4961 32.0574 17.9752 28.3747 22.5078C24.6005 27.1593 17.4543 28.2102 12.4556 24.0796C11.752 24.7833 11.0574 25.4778 10.3538 26.1815C10.8107 26.6201 11.2859 27.077 11.7794 27.5614C11.6514 27.6984 11.5692 27.7898 11.4869 27.8721C9.20235 30.1658 6.90862 32.4504 4.62402 34.735C4.54178 34.8172 4.46867 34.8995 4.39556 34.9817C4.37729 34.9817 4.34987 34.9817 4.33159 34.9817C4.2859 34.9178 4.24021 34.8538 4.18538 34.799C2.86031 33.4739 1.53525 32.1397 0.201043 30.8146C0.146212 30.7598 0.0822438 30.7232 0.0182751 30.6684C-1.67356e-06 30.6684 0 30.6501 0 30.6227ZM15.1332 10.8564C15.1514 10.9478 15.1606 10.9843 15.1789 11.03C15.8916 13.1684 16.5953 15.3068 17.3172 17.436C17.3538 17.5457 17.5 17.6645 17.6097 17.7102C18.8982 18.1488 20.1958 18.5783 21.4843 19.0078C22.3525 19.3003 23.2206 19.5836 24.1436 19.8943C24.107 19.7572 24.0796 19.6749 24.0522 19.5927C23.3668 17.5366 22.6723 15.4713 21.9961 13.4151C21.923 13.1958 21.8133 13.0862 21.594 13.0131C20.2781 12.5836 18.9621 12.1358 17.6462 11.6971C16.8238 11.4138 15.9922 11.1397 15.1332 10.8564Z" fill="white"/>
<path d="M29.782 3.84717C30.2481 4.31323 30.7141 4.77928 31.1528 5.21793C30.705 5.66571 30.2298 6.1409 29.7729 6.58868C29.3251 6.1409 28.8499 5.66571 28.4021 5.21793C28.8682 4.76101 29.3342 4.29495 29.782 3.84717Z" fill="white"/>
<path d="M31.1344 25.5418C30.7049 25.9713 30.2297 26.4465 29.7728 26.8943C29.3341 26.4557 28.8681 25.9805 28.4294 25.551C28.8681 25.1123 29.3433 24.6371 29.7819 24.1985C30.2114 24.6189 30.6866 25.094 31.1344 25.5418Z" fill="white"/>
<path d="M9.47647 3.81982C9.94253 4.28588 10.4086 4.75194 10.8472 5.19058C10.3903 5.6475 9.92425 6.1227 9.47647 6.57048C9.03783 6.13183 8.56263 5.65664 8.10571 5.19972C8.54436 4.75194 9.01041 4.28588 9.47647 3.81982Z" fill="white"/>
<path d="M20.6345 2.01958C19.9582 2.01958 19.3003 2.01958 18.624 2.01958C18.624 1.34334 18.624 0.67624 18.624 0C19.2911 0 19.9491 0 20.6345 0C20.6345 0.657963 20.6345 1.31593 20.6345 2.01958Z" fill="white"/>
<path d="M6.27814 14.3655C6.27814 15.0326 6.27814 15.6905 6.27814 16.3759C5.62018 16.3759 4.95308 16.3759 4.2677 16.3759C4.2677 15.718 4.2677 15.0509 4.2677 14.3655C4.9348 14.3655 5.59277 14.3655 6.27814 14.3655Z" fill="white"/>
<path d="M32.9803 16.3668C32.9803 15.6905 32.9803 15.0417 32.9803 14.3655C33.6566 14.3655 34.3237 14.3655 34.9999 14.3655C34.9999 15.0326 34.9999 15.6905 34.9999 16.3668C34.3511 16.3668 33.684 16.3668 32.9803 16.3668Z" fill="white"/>
<path d="M20.6435 30.7415C19.9673 30.7415 19.3093 30.7415 18.6331 30.7415C18.6331 30.0744 18.6331 29.4073 18.6331 28.7219C19.3002 28.7219 19.9673 28.7219 20.6435 28.7219C20.6435 29.3982 20.6435 30.047 20.6435 30.7415Z" fill="white"/>
<path d="M20.9086 16.641C20.2597 16.4217 19.684 16.2389 19.1174 16.0379C19.0535 16.0196 18.9804 15.9465 18.9621 15.8825C18.761 15.316 18.5783 14.7402 18.3589 14.0823C18.7976 14.2285 19.1631 14.3838 19.5378 14.4569C20.1044 14.5757 20.4151 14.8682 20.5247 15.4439C20.5979 15.8368 20.7623 16.1932 20.9086 16.641Z" fill="white"/>
</svg>
