<?xml version="1.0" encoding="utf-8"?>
<!-- Generator: Adobe Illustrator 24.0.1, SVG Export Plug-In . SVG Version: 6.00 Build 0)  -->
<svg version="1.1" id="Layer_1" xmlns="http://www.w3.org/2000/svg" xmlns:xlink="http://www.w3.org/1999/xlink" x="0px" y="0px"
	 viewBox="0 0 50 50" style="enable-background:new 0 0 50 50;" xml:space="preserve">
<style type="text/css">
	.st0{fill:#B6CCB9;}
</style>
<g>
	<path class="st0" d="M42.1,27.4c-0.1-0.4-0.2-0.8-0.2-1.2c-0.6,0-1.1,0-1.7,0C40,26.6,40,27,39.9,27.4
		C40.6,27.4,41.3,27.4,42.1,27.4z"/>
	<path class="st0" d="M42.2,27.4c0.6,0,1.2,0,1.8,0c0,0,0,0,0,0c0,0,0,0,0,0c-0.2-0.4-0.5-0.8-0.7-1.1c0,0,0,0-0.1,0
		c-0.3,0-0.6,0-0.9,0c-0.1,0-0.3,0-0.4,0c0,0,0,0,0,0C42,26.6,42.1,26.9,42.2,27.4C42.2,27.4,42.2,27.4,42.2,27.4z"/>
	<path class="st0" d="M39.8,27.4C39.8,27.4,39.8,27.3,39.8,27.4c0.1-0.3,0.2-0.6,0.2-0.9c0-0.1,0-0.2,0.1-0.3c0,0,0,0,0,0
		c-0.4,0-0.8,0-1.3,0c0,0-0.1,0-0.1,0c-0.2,0.3-0.4,0.6-0.6,0.9c-0.1,0.1-0.1,0.2-0.2,0.3c0,0,0,0,0,0
		C38.5,27.4,39.1,27.4,39.8,27.4z"/>
	<path class="st0" d="M25.9,2.8h1.8c0,0,0,0,0,0c0,0,0,0,0,0c-0.3-0.4-0.5-0.8-0.7-1.1c0,0,0,0-0.1,0h-1.3c0,0,0,0,0,0
		C25.7,2,25.7,2.4,25.9,2.8C25.8,2.8,25.8,2.8,25.9,2.8z"/>
	<path class="st0" d="M43,29.4c-0.1,0-0.2-0.1-0.3-0.1c0.5-0.6,0.9-1.2,1.4-1.8h-1.9c-0.2,0.5-0.3,1.1-0.4,1.6c0,0-0.1,0-0.1,0
		c0.1-0.5,0.3-1.1,0.4-1.6h-2.1c0.2,0.5,0.3,1.1,0.4,1.6c0,0-0.1,0-0.1,0c-0.2-0.5-0.3-1.1-0.4-1.6h-1.9c0.5,0.6,1,1.2,1.4,1.8
		c-0.9,0.2-1.7,0.7-2.4,1.4c-1.7,1.7-1.9,4.2-1.3,6c0.9,2.8,3.6,3.8,3.9,3.9c0,0.1,0,0.2,0,0.2c0,0-0.2,0.9-0.8,1.7
		c-0.9,1-4.5,2.3-6.7,0.8c-4-2.7,0.5-10.7-3.8-16.8c-2.1-2.9-5.4-4.2-7.9-4.9c1.7-1,3-1.9,4-2.6c1.7-1.2,3.1-2.4,4.3-4.1
		c0.2-0.2,0.3-0.4,0.3-0.4c0.7-1,1.1-1.9,1.1-2.2c0.4-1.1,0.4-3.7-1.5-5.7C27.9,5.9,27,5.4,26,5.1c0.6-0.7,1.1-1.4,1.7-2.2h-1.9
		c-0.2,0.7-0.4,1.4-0.6,2c0,0-0.1,0-0.1,0c0.2-0.7,0.4-1.3,0.5-2h-2.1c0.2,0.7,0.4,1.3,0.5,2H24c-0.2-0.7-0.4-1.3-0.5-2h-1.9
		c0.6,0.7,1.1,1.4,1.7,2.1c-0.2,0-0.3,0.1-0.5,0.1c-2.4,0.7-4.1,3-4.1,5.6c0,2.9,2.2,5.4,5,5.8c0.4,0.8-0.9,1.7-1.4,2.3
		c-0.9,0.9-3,2.6-8.3,2.7V1C9.2,1,5.3,4.9,5.3,9.6v35.9c2.4,0,4.6-1,6.2-2.6c1.6-1.6,2.6-3.8,2.6-6.2V22.4c0.4,0,0.8-0.1,1.3-0.1
		c0.2,0.9,0.6,1.8,0.7,2.7c0.1,1.9,0,3.9,0.2,5.8c1.1,11.6,13.9,18.6,24,13.5c2.5-1.3,4.3-3.5,4.3-3.5c1-1.3,1.6-2.5,2-3.5
		c0-0.1,0.1-0.4,0.2-0.7c0,0,0.2-0.8,0.2-1.6C47.1,34,46.2,30.5,43,29.4z M20.3,10.7c0-2.3,1.8-4.1,4.1-4.2c0,0,0,0,0,0h0.1
		c0,0,0.1,0,0.1,0c0,0,0.1,0,0.1,0h0c2.2,0.2,3.9,2,3.9,4.2c0,2.3-1.9,4.2-4.2,4.2S20.3,13,20.3,10.7z M41.2,39.1
		c-2.3,0-4.2-1.9-4.2-4.2c0-2.1,1.5-3.8,3.5-4.1c0.1,0,0.1,0,0.2,0c0,0,0.1,0,0.1,0c0.1,0,0.2,0,0.3,0c0,0,0.1,0,0.1,0h0
		c0.1,0,0.1,0,0.2,0c2.2,0.1,4,1.9,4,4.2C45.4,37.3,43.5,39.1,41.2,39.1z"/>
	<path class="st0" d="M23.4,2.8C23.4,2.8,23.4,2.8,23.4,2.8c0.1-0.3,0.2-0.6,0.2-0.9c0-0.1,0-0.2,0.1-0.3c0,0,0,0,0,0h-1.3
		c0,0-0.1,0-0.1,0c-0.2,0.3-0.4,0.6-0.6,0.9c-0.1,0.1-0.1,0.2-0.2,0.3c0,0,0,0,0,0H23.4z"/>
	<path class="st0" d="M25.7,2.8c-0.1-0.4-0.2-0.8-0.2-1.2h-1.7c-0.1,0.4-0.2,0.8-0.2,1.2H25.7z"/>
</g>
</svg>
