<?xml version="1.0" encoding="utf-8"?>
<!-- Generator: Adobe Illustrator 24.0.1, SVG Export Plug-In . SVG Version: 6.00 Build 0)  -->
<svg version="1.1" id="Layer_1" xmlns="http://www.w3.org/2000/svg" xmlns:xlink="http://www.w3.org/1999/xlink" x="0px" y="0px"
	 viewBox="0 0 300 48" style="enable-background:new 0 0 300 48;" xml:space="preserve">
<style type="text/css">
	.st0{fill:#FFFFFF;}
	.st1{fill:#B6CCB9;}
</style>
<g>
	<path class="st0" d="M99.6,13.6l6.1,6c1,1,1.8,1.7,2.5,2c0.7,0.4,1.4,0.6,2.1,0.6v0.4h-7.8v-0.4c0.5,0,0.8-0.1,1-0.2
		c0.2-0.2,0.3-0.3,0.3-0.5c0-0.2,0-0.4-0.1-0.5c-0.1-0.2-0.3-0.4-0.8-0.9l-5.7-5.6v5.3c0,0.8,0.1,1.4,0.2,1.6
		c0.1,0.2,0.3,0.4,0.5,0.5c0.3,0.2,0.7,0.3,1.1,0.3h0.6v0.4h-7v-0.4h0.6c0.7,0,1.2-0.2,1.5-0.6c0.2-0.3,0.3-0.9,0.3-1.9V9.2
		c0-0.8-0.1-1.4-0.2-1.7c-0.1-0.2-0.2-0.4-0.5-0.5c-0.4-0.2-0.7-0.3-1.1-0.3h-0.6V6.3h7v0.4H99c-0.4,0-0.7,0.1-1.1,0.3
		c-0.3,0.1-0.4,0.3-0.5,0.6c-0.1,0.3-0.1,0.8-0.1,1.6v5c0.2-0.2,0.7-0.7,1.7-1.5c2.4-2.2,3.9-3.7,4.4-4.4c0.2-0.3,0.3-0.6,0.3-0.8
		c0-0.2-0.1-0.3-0.3-0.5c-0.2-0.1-0.5-0.2-0.9-0.2h-0.4V6.3h6v0.4c-0.4,0-0.7,0.1-1,0.1s-0.6,0.3-1.1,0.5c-0.4,0.3-0.9,0.7-1.6,1.2
		c-0.2,0.2-1,1-2.5,2.5L99.6,13.6z"/>
	<path class="st0" d="M112.7,15.8c0,1.6,0.4,2.9,1.2,3.9c0.8,0.9,1.8,1.4,2.9,1.4c0.7,0,1.4-0.2,1.9-0.6c0.5-0.4,1-1.1,1.4-2.1
		l0.4,0.2c-0.2,1.1-0.7,2.1-1.5,3s-1.8,1.4-3.1,1.4c-1.3,0-2.5-0.5-3.4-1.6c-1-1-1.4-2.4-1.4-4.2c0-1.9,0.5-3.4,1.5-4.4
		s2.2-1.6,3.7-1.6c1.2,0,2.3,0.4,3.1,1.2c0.8,0.8,1.2,1.9,1.2,3.3H112.7z M112.7,15.1h5.1c0-0.7-0.1-1.2-0.3-1.5
		c-0.2-0.5-0.5-0.8-0.9-1.1c-0.4-0.3-0.8-0.4-1.3-0.4c-0.7,0-1.3,0.3-1.8,0.8C113.1,13.5,112.8,14.2,112.7,15.1z"/>
	<path class="st0" d="M125.1,11.3v2.5c0.9-1.7,1.9-2.5,2.9-2.5c0.4,0,0.8,0.1,1.1,0.4s0.4,0.6,0.4,0.9c0,0.3-0.1,0.6-0.3,0.8
		c-0.2,0.2-0.5,0.3-0.8,0.3c-0.3,0-0.6-0.1-1-0.4c-0.4-0.3-0.6-0.4-0.8-0.4c-0.1,0-0.3,0.1-0.5,0.2c-0.4,0.3-0.7,0.9-1.1,1.6v5.3
		c0,0.6,0.1,1.1,0.2,1.4c0.1,0.2,0.3,0.4,0.6,0.5c0.3,0.1,0.7,0.2,1.2,0.2v0.4h-5.7v-0.4c0.6,0,1-0.1,1.3-0.3
		c0.2-0.1,0.3-0.3,0.4-0.6c0-0.1,0.1-0.5,0.1-1.2v-4.3c0-1.3,0-2.1-0.1-2.3s-0.1-0.4-0.3-0.5c-0.1-0.1-0.3-0.2-0.5-0.2
		c-0.3,0-0.5,0.1-0.8,0.2l-0.1-0.4l3.4-1.4H125.1z"/>
	<path class="st0" d="M136.4,21.1c-1.1,0.9-1.9,1.4-2.1,1.5c-0.4,0.2-0.9,0.3-1.4,0.3c-0.8,0-1.4-0.3-1.9-0.8
		c-0.5-0.5-0.7-1.2-0.7-2.1c0-0.5,0.1-1,0.4-1.4c0.3-0.5,0.9-1.1,1.7-1.6c0.8-0.5,2.2-1.1,4.1-1.8v-0.4c0-1.1-0.2-1.9-0.5-2.3
		c-0.4-0.4-0.9-0.6-1.5-0.6c-0.5,0-0.9,0.1-1.2,0.4c-0.3,0.3-0.5,0.6-0.5,0.9l0,0.7c0,0.4-0.1,0.7-0.3,0.9s-0.4,0.3-0.7,0.3
		c-0.3,0-0.5-0.1-0.7-0.3c-0.2-0.2-0.3-0.5-0.3-0.9c0-0.7,0.4-1.3,1.1-1.9c0.7-0.6,1.7-0.9,3-0.9c1,0,1.8,0.2,2.4,0.5
		c0.5,0.3,0.8,0.6,1.1,1.2c0.1,0.3,0.2,1.1,0.2,2.1v3.8c0,1.1,0,1.7,0.1,1.9c0,0.2,0.1,0.4,0.2,0.5c0.1,0.1,0.2,0.1,0.3,0.1
		c0.1,0,0.2,0,0.3-0.1c0.2-0.1,0.5-0.4,1-0.9v0.7c-0.9,1.2-1.8,1.8-2.6,1.8c-0.4,0-0.7-0.1-0.9-0.4
		C136.6,22.3,136.5,21.8,136.4,21.1z M136.4,20.4v-4.2c-1.2,0.5-2,0.8-2.4,1c-0.6,0.4-1.1,0.7-1.4,1.1s-0.4,0.8-0.4,1.3
		c0,0.6,0.2,1.1,0.5,1.4c0.3,0.4,0.7,0.6,1.2,0.6C134.6,21.6,135.4,21.2,136.4,20.4z"/>
	<path class="st0" d="M145,5.5v14.7c0,0.7,0.1,1.2,0.2,1.4s0.3,0.4,0.5,0.5c0.2,0.1,0.6,0.2,1.2,0.2v0.4h-5.4v-0.4
		c0.5,0,0.9-0.1,1-0.2s0.3-0.3,0.4-0.5c0.1-0.2,0.2-0.7,0.2-1.4V10.1c0-1.3,0-2-0.1-2.3s-0.1-0.5-0.3-0.6c-0.1-0.1-0.3-0.2-0.5-0.2
		c-0.2,0-0.5,0.1-0.8,0.2l-0.2-0.4l3.3-1.4H145z"/>
	<path class="st0" d="M154.4,21.1c-1.1,0.9-1.9,1.4-2.1,1.5c-0.4,0.2-0.9,0.3-1.4,0.3c-0.8,0-1.4-0.3-1.9-0.8
		c-0.5-0.5-0.7-1.2-0.7-2.1c0-0.5,0.1-1,0.4-1.4c0.3-0.5,0.9-1.1,1.7-1.6c0.8-0.5,2.2-1.1,4.1-1.8v-0.4c0-1.1-0.2-1.9-0.5-2.3
		c-0.4-0.4-0.9-0.6-1.5-0.6c-0.5,0-0.9,0.1-1.2,0.4c-0.3,0.3-0.5,0.6-0.5,0.9l0,0.7c0,0.4-0.1,0.7-0.3,0.9s-0.4,0.3-0.7,0.3
		c-0.3,0-0.5-0.1-0.7-0.3c-0.2-0.2-0.3-0.5-0.3-0.9c0-0.7,0.4-1.3,1.1-1.9c0.7-0.6,1.7-0.9,3-0.9c1,0,1.8,0.2,2.4,0.5
		c0.5,0.3,0.8,0.6,1.1,1.2c0.1,0.3,0.2,1.1,0.2,2.1v3.8c0,1.1,0,1.7,0.1,1.9c0,0.2,0.1,0.4,0.2,0.5c0.1,0.1,0.2,0.1,0.3,0.1
		c0.1,0,0.2,0,0.3-0.1c0.2-0.1,0.5-0.4,1-0.9v0.7c-0.9,1.2-1.8,1.8-2.6,1.8c-0.4,0-0.7-0.1-0.9-0.4
		C154.5,22.3,154.4,21.8,154.4,21.1z M154.4,20.4v-4.2c-1.2,0.5-2,0.8-2.4,1c-0.6,0.4-1.1,0.7-1.4,1.1s-0.4,0.8-0.4,1.3
		c0,0.6,0.2,1.1,0.5,1.4c0.3,0.4,0.7,0.6,1.2,0.6C152.6,21.6,153.4,21.2,154.4,20.4z"/>
	<path class="st1" d="M178.8,6.3L168,21.8h6.7c1,0,1.8-0.2,2.4-0.7c0.6-0.5,1-1.4,1.5-2.8l0.4,0.1l-0.8,4.4h-13.4v-0.4l10.6-15h-5.3
		c-0.9,0-1.5,0.1-1.9,0.3c-0.4,0.2-0.7,0.5-0.9,0.8s-0.4,1-0.6,2h-0.5l0.3-4.1H178.8z"/>
	<path class="st1" d="M186.8,21.1c-1.1,0.9-1.9,1.4-2.1,1.5c-0.4,0.2-0.9,0.3-1.4,0.3c-0.8,0-1.4-0.3-1.9-0.8
		c-0.5-0.5-0.7-1.2-0.7-2.1c0-0.5,0.1-1,0.4-1.4c0.3-0.5,0.9-1.1,1.7-1.6c0.8-0.5,2.2-1.1,4.1-1.8v-0.4c0-1.1-0.2-1.9-0.5-2.3
		s-0.9-0.6-1.5-0.6c-0.5,0-0.9,0.1-1.2,0.4c-0.3,0.3-0.5,0.6-0.5,0.9l0,0.7c0,0.4-0.1,0.7-0.3,0.9c-0.2,0.2-0.4,0.3-0.7,0.3
		c-0.3,0-0.5-0.1-0.7-0.3c-0.2-0.2-0.3-0.5-0.3-0.9c0-0.7,0.4-1.3,1.1-1.9c0.7-0.6,1.7-0.9,3-0.9c1,0,1.8,0.2,2.4,0.5
		c0.5,0.3,0.8,0.6,1.1,1.2c0.1,0.3,0.2,1.1,0.2,2.1v3.8c0,1.1,0,1.7,0.1,1.9c0,0.2,0.1,0.4,0.2,0.5c0.1,0.1,0.2,0.1,0.3,0.1
		c0.1,0,0.2,0,0.3-0.1c0.2-0.1,0.5-0.4,1-0.9v0.7c-0.9,1.2-1.8,1.8-2.6,1.8c-0.4,0-0.7-0.1-0.9-0.4
		C186.9,22.3,186.8,21.8,186.8,21.1z M186.8,20.4v-4.2c-1.2,0.5-2,0.8-2.4,1c-0.6,0.4-1.1,0.7-1.4,1.1c-0.3,0.4-0.4,0.8-0.4,1.3
		c0,0.6,0.2,1.1,0.5,1.4c0.3,0.4,0.7,0.6,1.2,0.6C185,21.6,185.8,21.2,186.8,20.4z"/>
	<path class="st1" d="M190.9,11.6h4.7v0.4c-0.4,0-0.7,0.1-0.8,0.2c-0.1,0.1-0.2,0.3-0.2,0.5c0,0.3,0.1,0.6,0.2,0.9l2.4,6.4l2.4-5.2
		l-0.6-1.6c-0.2-0.5-0.4-0.8-0.8-1c-0.2-0.1-0.5-0.2-1-0.2v-0.4h5.3v0.4c-0.6,0-1,0.1-1.2,0.3c-0.2,0.1-0.2,0.3-0.2,0.6
		c0,0.2,0,0.3,0.1,0.5l2.5,6.4l2.3-6.1c0.2-0.4,0.2-0.8,0.2-1c0-0.2-0.1-0.3-0.2-0.4c-0.2-0.1-0.5-0.2-0.9-0.2v-0.4h3.5v0.4
		c-0.7,0.1-1.2,0.6-1.6,1.4l-3.7,9.6h-0.5l-2.8-7.1l-3.2,7.1h-0.4l-3.6-9.3c-0.2-0.6-0.5-1-0.7-1.2c-0.2-0.2-0.6-0.4-1.1-0.5V11.6z"
		/>
	<path class="st1" d="M215.7,21.1c-1.1,0.9-1.9,1.4-2.1,1.5c-0.4,0.2-0.9,0.3-1.4,0.3c-0.8,0-1.4-0.3-1.9-0.8
		c-0.5-0.5-0.7-1.2-0.7-2.1c0-0.5,0.1-1,0.4-1.4c0.3-0.5,0.9-1.1,1.7-1.6c0.8-0.5,2.2-1.1,4.1-1.8v-0.4c0-1.1-0.2-1.9-0.5-2.3
		s-0.9-0.6-1.5-0.6c-0.5,0-0.9,0.1-1.2,0.4c-0.3,0.3-0.5,0.6-0.5,0.9l0,0.7c0,0.4-0.1,0.7-0.3,0.9c-0.2,0.2-0.4,0.3-0.7,0.3
		c-0.3,0-0.5-0.1-0.7-0.3c-0.2-0.2-0.3-0.5-0.3-0.9c0-0.7,0.4-1.3,1.1-1.9c0.7-0.6,1.7-0.9,3-0.9c1,0,1.8,0.2,2.4,0.5
		c0.5,0.3,0.8,0.6,1.1,1.2c0.1,0.3,0.2,1.1,0.2,2.1v3.8c0,1.1,0,1.7,0.1,1.9c0,0.2,0.1,0.4,0.2,0.5c0.1,0.1,0.2,0.1,0.3,0.1
		c0.1,0,0.2,0,0.3-0.1c0.2-0.1,0.5-0.4,1-0.9v0.7c-0.9,1.2-1.8,1.8-2.6,1.8c-0.4,0-0.7-0.1-0.9-0.4
		C215.9,22.3,215.8,21.8,215.7,21.1z M215.7,20.4v-4.2c-1.2,0.5-2,0.8-2.4,1c-0.6,0.4-1.1,0.7-1.4,1.1c-0.3,0.4-0.4,0.8-0.4,1.3
		c0,0.6,0.2,1.1,0.5,1.4c0.3,0.4,0.7,0.6,1.2,0.6C213.9,21.6,214.7,21.2,215.7,20.4z"/>
	<path class="st1" d="M224.3,11.3v11.2c0,1.9-0.4,3.3-1.2,4.2c-0.8,0.9-1.9,1.4-3.2,1.4c-0.7,0-1.3-0.1-1.6-0.4
		c-0.4-0.3-0.5-0.5-0.5-0.8s0.1-0.5,0.3-0.7s0.4-0.3,0.7-0.3c0.2,0,0.4,0.1,0.6,0.2c0.1,0.1,0.4,0.3,0.8,0.6c0.4,0.4,0.7,0.5,1,0.5
		c0.2,0,0.4-0.1,0.6-0.2c0.2-0.1,0.3-0.4,0.4-0.8c0.1-0.4,0.1-1.1,0.1-2.3V16c0-1.2,0-2-0.1-2.4c-0.1-0.3-0.1-0.5-0.3-0.6
		c-0.1-0.1-0.3-0.2-0.5-0.2c-0.2,0-0.5,0.1-0.8,0.2l-0.2-0.4l3.3-1.4H224.3z M223.3,5.5c0.3,0,0.6,0.1,0.9,0.4
		c0.2,0.2,0.4,0.5,0.4,0.9c0,0.3-0.1,0.6-0.4,0.9c-0.2,0.2-0.5,0.4-0.9,0.4c-0.3,0-0.6-0.1-0.9-0.4c-0.2-0.2-0.4-0.5-0.4-0.9
		c0-0.3,0.1-0.6,0.4-0.9C222.7,5.6,223,5.5,223.3,5.5z"/>
	<g>
		<path class="st1" d="M100.7,28.4c-0.1-0.4-0.2-0.8-0.2-1.2c-0.6,0-1.1,0-1.7,0c-0.1,0.4-0.2,0.8-0.2,1.2
			C99.2,28.4,99.9,28.4,100.7,28.4z"/>
		<path class="st1" d="M100.8,28.4c0.6,0,1.2,0,1.8,0c0,0,0,0,0,0c0,0,0,0,0,0c-0.2-0.4-0.5-0.8-0.7-1.1c0,0,0,0-0.1,0
			c-0.3,0-0.6,0-0.9,0c-0.1,0-0.3,0-0.4,0c0,0,0,0,0,0C100.6,27.6,100.7,28,100.8,28.4C100.8,28.4,100.8,28.4,100.8,28.4z"/>
		<path class="st1" d="M98.4,28.4C98.4,28.4,98.4,28.4,98.4,28.4c0.1-0.3,0.2-0.6,0.2-0.9c0-0.1,0-0.2,0.1-0.3c0,0,0,0,0,0
			c-0.4,0-0.8,0-1.3,0c0,0-0.1,0-0.1,0c-0.2,0.3-0.4,0.6-0.6,0.9c-0.1,0.1-0.1,0.2-0.2,0.3c0,0,0,0,0,0
			C97.1,28.4,97.8,28.4,98.4,28.4z"/>
		<path class="st1" d="M84.5,3.8h1.8c0,0,0,0,0,0c0,0,0,0,0,0c-0.3-0.4-0.5-0.8-0.7-1.1c0,0,0,0-0.1,0h-1.3c0,0,0,0,0,0
			C84.3,3.1,84.3,3.4,84.5,3.8C84.4,3.8,84.4,3.8,84.5,3.8z"/>
		<path class="st1" d="M101.6,30.4c-0.1,0-0.2-0.1-0.3-0.1c0.5-0.6,0.9-1.2,1.4-1.8h-1.9c-0.2,0.5-0.3,1.1-0.4,1.6c0,0-0.1,0-0.1,0
			c0.1-0.5,0.3-1.1,0.4-1.6h-2.1c0.2,0.5,0.3,1.1,0.4,1.6c0,0-0.1,0-0.1,0c-0.2-0.5-0.3-1.1-0.4-1.6h-1.9c0.5,0.6,1,1.2,1.4,1.8
			c-0.9,0.2-1.7,0.7-2.4,1.4c-1.7,1.7-1.9,4.2-1.3,6c0.9,2.8,3.6,3.8,3.9,3.9c0,0.1,0,0.2,0,0.2c0,0-0.2,0.9-0.8,1.7
			c-0.9,1-4.5,2.3-6.7,0.8c-4-2.7,0.5-10.7-3.8-16.8c-2.1-2.9-5.4-4.2-7.9-4.9c1.7-1,3-1.9,4-2.6c1.7-1.2,3.1-2.4,4.3-4.1
			c0.2-0.2,0.3-0.4,0.3-0.4c0.7-1,1.1-1.9,1.1-2.2c0.4-1.1,0.4-3.7-1.5-5.7c-0.7-0.8-1.7-1.3-2.7-1.6c0.6-0.7,1.1-1.4,1.7-2.2h-1.9
			c-0.2,0.7-0.4,1.4-0.6,2c0,0-0.1,0-0.1,0c0.2-0.7,0.4-1.3,0.5-2h-2.1c0.2,0.7,0.4,1.3,0.5,2h-0.1c-0.2-0.7-0.4-1.3-0.5-2h-1.9
			c0.6,0.7,1.1,1.4,1.7,2.1c-0.2,0-0.3,0.1-0.5,0.1c-2.4,0.7-4.1,3-4.1,5.6c0,2.9,2.2,5.4,5,5.8c0.4,0.8-0.9,1.7-1.4,2.3
			c-0.9,0.9-3,2.6-8.3,2.7V2c-4.8,0-8.7,3.9-8.7,8.7v35.9c2.4,0,4.6-1,6.2-2.6c1.6-1.6,2.6-3.8,2.6-6.2V23.4c0.4,0,0.8-0.1,1.3-0.1
			c0.2,0.9,0.6,1.8,0.7,2.7c0.1,1.9,0,3.9,0.2,5.8c1.1,11.6,13.9,18.6,24,13.5c2.5-1.3,4.3-3.5,4.3-3.5c1-1.3,1.6-2.5,2-3.5
			c0-0.1,0.1-0.4,0.2-0.7c0,0,0.2-0.8,0.2-1.6C105.7,35,104.8,31.5,101.6,30.4z M78.9,11.7c0-2.3,1.8-4.1,4.1-4.2c0,0,0,0,0,0h0.1
			c0,0,0.1,0,0.1,0c0,0,0.1,0,0.1,0h0c2.2,0.2,3.9,2,3.9,4.2c0,2.3-1.9,4.2-4.2,4.2C80.8,15.9,78.9,14,78.9,11.7z M99.8,40.1
			c-2.3,0-4.2-1.9-4.2-4.2c0-2.1,1.5-3.8,3.5-4.1c0.1,0,0.1,0,0.2,0c0,0,0.1,0,0.1,0c0.1,0,0.2,0,0.3,0c0,0,0.1,0,0.1,0h0
			c0.1,0,0.1,0,0.2,0c2.2,0.1,4,1.9,4,4.2C104,38.3,102.1,40.1,99.8,40.1z"/>
		<path class="st1" d="M82,3.8C82,3.8,82.1,3.8,82,3.8c0.1-0.3,0.2-0.6,0.2-0.9c0-0.1,0-0.2,0.1-0.3c0,0,0,0,0,0H81c0,0-0.1,0-0.1,0
			c-0.2,0.3-0.4,0.6-0.6,0.9c-0.1,0.1-0.1,0.2-0.2,0.3c0,0,0,0,0,0H82z"/>
		<path class="st1" d="M84.3,3.8c-0.1-0.4-0.2-0.8-0.2-1.2h-1.7c-0.1,0.4-0.2,0.8-0.2,1.2H84.3z"/>
	</g>
</g>
</svg>
